<svg xmlns="http://www.w3.org/2000/svg" xmlns:xlink="http://www.w3.org/1999/xlink" version="1.1" width="1000" height="1000" viewBox="0 0 1000 1000" xml:space="preserve">
<desc>Created with Fabric.js 3.5.0</desc>
<defs>
</defs>
<rect x="0" y="0" width="100%" height="100%" fill="#ffffff"/>
<g transform="matrix(0.3531 0 0 0.5 353.1 500)" id="887865">
<g style="" vector-effect="non-scaling-stroke">
		<g transform="matrix(1 0 0 1 -881.4372 -30.5281)" id="Layer_1">
<path style="stroke: none; stroke-width: 1; stroke-dasharray: none; stroke-linecap: butt; stroke-dashoffset: 0; stroke-linejoin: miter; stroke-miterlimit: 4; is-custom-font: none; font-file-url: none; fill: rgb(16,170,80); fill-rule: nonzero; opacity: 1;" transform=" translate(-118.5628, -233.6719)" d="M 232.9 210.3 C 205.1 87.5 147.1 54.8 132.3 31.7 c -6.1 -10.2 -11.5 -20.8 -16.2 -31.7 c -0.8 10.9 -2.2 17.8 -11.5 26.1 C 86 42.7 6.9 107.1 0.3 246.6 c -6.2 130.1 95.6 210.3 109.1 218.6 c 10.3 5.1 22.9 0.1 29.1 -4.6 c 49 -33.6 116.1 -123.4 94.4 -250.3" stroke-linecap="round"/>
</g>
		<g transform="matrix(1 0 0 1 -875.85 198)" id="Layer_1">
<path style="stroke: none; stroke-width: 1; stroke-dasharray: none; stroke-linecap: butt; stroke-dashoffset: 0; stroke-linejoin: miter; stroke-miterlimit: 4; is-custom-font: none; font-file-url: none; fill: rgb(184,196,194); fill-rule: nonzero; opacity: 1;" transform=" translate(-124.15, -462.2)" d="M 120.3 396 c -2.6 32.2 -4.4 50.9 -10.9 69.3 c 0 0 4.3 30.7 7.3 63.1 h 10.6 c 2.5 -22.9 6.4 -45.6 11.6 -68 c -13.8 -6.8 -18 -36.2 -18.6 -64.4 z" stroke-linecap="round"/>
</g>
		<g transform="matrix(1 0 0 1 -822.7916 -32.6)" id="Layer_1">
<path style="stroke: none; stroke-width: 1; stroke-dasharray: none; stroke-linecap: butt; stroke-dashoffset: 0; stroke-linejoin: miter; stroke-miterlimit: 4; is-custom-font: none; font-file-url: none; fill: rgb(18,146,79); fill-rule: nonzero; opacity: 1;" transform=" translate(-177.2084, -231.6)" d="M 138.9 460.4 C 125 454 121 424 120.3 396 c 3.4 -46.2 4.4 -92.5 3 -138.8 c -0.7 -24.3 0.3 -225 -6 -254.4 c 4.3 10 9.3 19.6 14.9 28.9 C 147 54.8 205 87.5 232.9 210.3 c 21.7 126.6 -45 216.2 -94 250.1 z" stroke-linecap="round"/>
</g>
		<g transform="matrix(1 0 0 1 157.7025 79.15)" id="Layer_1">
<path style="stroke: none; stroke-width: 1; stroke-dasharray: none; stroke-linecap: butt; stroke-dashoffset: 0; stroke-linejoin: miter; stroke-miterlimit: 4; is-custom-font: none; font-file-url: none; fill: rgb(33,49,60); fill-rule: nonzero; opacity: 1;" transform=" translate(-1157.7026, -343.35)" d="M 1969.8 416 c -16.7 0 -30.2 -13.5 -30.2 -30.2 s 13.5 -30.2 30.2 -30.2 c 16.5 0 29.9 13.3 30.2 29.7 c 0.4 16.4 -12.5 30.1 -29 30.6 c -0.4 0.1 -0.8 0.1 -1.2 0.1 m 0 -57.6 c -15.2 -0.1 -27.5 12.1 -27.6 27.3 c -0.1 15.2 12.1 27.5 27.3 27.6 c 15.2 0.1 27.5 -12.1 27.6 -27.3 v -0.1 c 0.3 -14.9 -11.6 -27.2 -26.5 -27.5 h -0.8 m 7.3 46.5 l -7.8 -16.8 h -6.3 v 16.8 h -4.6 v -38.2 h 11.3 c 8.4 0 11.9 3.6 11.9 10.7 c 0 5.6 -2.6 9.1 -7.5 10.2 l 8 17.3 h -5 z m -13.9 -20.7 h 6.6 c 5.3 0 7.4 -1.8 7.4 -6.7 s -1.9 -6.5 -8 -6.5 h -6 v 13.2 z M 1520.9 388.5 c 8.2 6.5 24.5 9.2 38.9 9.2 c 18.6 0 36.9 -3.5 54.8 -19.6 c 18.2 -16.5 30.7 -41.8 30.7 -82.2 c 0 -38.8 -14.8 -70.3 -45.1 -88.7 c -17.1 -10.7 -39.2 -15 -64.5 -15 c -7.3 0 -14.8 0.4 -19 2.3 c -1.7 1.4 -3 3.3 -3.5 5.5 c -0.8 6.9 -0.8 59.5 -0.8 90.6 c 0 31.9 0 76.4 0.8 81.8 c 0.3 4.7 2.7 12.8 7.7 16.1 M 1443.4 175 c 6.6 0 31.7 1.1 43.4 1.1 c 21.8 0 36.9 -1.1 77.7 -1.1 c 34.2 0 62.9 9.2 83.5 26.9 c 24.9 21.5 38.2 51.5 38.2 88 c 0 51.9 -23.6 81.8 -47.4 98.7 c -23.6 17.7 -54.4 27.7 -98.2 27.7 c -23.3 0 -63.3 -0.8 -96.7 -1.1 h -0.7 c -1.6 -3.1 2.9 -15.1 5.6 -15.4 c 9.1 -1 11.5 -1.4 15.7 -3.1 c 7.1 -2.9 8.7 -6.5 9.5 -19.2 c 1.2 -23.8 0.8 -52.2 0.8 -84.5 c 0 -23 0.4 -68 -0.4 -82.2 c -1.2 -11.9 -6.2 -15 -16.4 -17.3 c -7.2 -1.5 -14.5 -2.7 -21.8 -3.5 c -0.8 -2.3 5.2 -12.7 7.1 -15 M 1782.4 194.5 c -1.5 0.4 -3.5 4.2 -3.5 6.1 c -0.4 13.8 -0.8 49.9 -0.8 74.9 c 0.2 1 1 1.7 1.9 1.9 c 5 0.4 17.5 0.8 28 0.8 c 14.8 0 23.3 -1.9 28 -4.2 c 12.4 -6.1 18.2 -19.6 18.2 -34.2 c 0 -33.4 -23.3 -46.1 -57.9 -46.1 c -4.7 0 -9.4 0.2 -13.9 0.8 m 88.1 153.6 c 0 -33.8 -24.9 -53 -70.3 -53 c -1.9 0 -16.4 -0.4 -19.8 0.4 c -1.2 0.4 -2.3 1.1 -2.3 1.9 c 0 24.2 -0.4 63 0.8 78.3 c 0.8 6.5 5.5 15.7 11.3 18.4 c 6.2 3.5 20.2 4.2 29.9 4.2 c 26.7 0.1 50.4 -14.8 50.4 -50.2 m -158.3 -172.4 c 3.5 0 13.8 1.1 40.3 1.1 c 24.9 0 45.1 -0.8 69.1 -0.8 c 29.9 0 71.1 10.8 71.1 55.3 c 0 21.8 -15.5 39.6 -35.7 48 c -1.2 0.4 -1.2 1.1 0 1.5 c 28.7 7.3 54 25 54 58.8 c 0 33 -20.6 53.8 -50.5 66.8 c -18.2 8.1 -40.8 10.7 -63.6 10.7 c -17.5 0 -64.3 -1.8 -90.3 -1.5 c -2.7 -1.1 2.5 -13.5 4.8 -15.4 c 6 -0.2 11.9 -1.1 17.6 -2.8 c 9.3 -2.3 10.4 -5.3 11.6 -19.1 c 0.8 -11.9 0.8 -54.5 0.8 -84.9 c 0 -41.5 0.4 -69.5 0 -83.3 c -0.4 -10.7 -4.3 -14.2 -11.7 -16.1 c -5.8 -1.2 -15.5 -2.3 -23.3 -3.5 c -2.1 -1.8 3.9 -13.3 5.8 -14.8 M 319 416 c -1 -2.5 -1.4 -5.1 -1.2 -7.8 c -0.1 -1.8 0.3 -3.6 1.2 -5.2 c 5 -0.7 10 -1.7 14.9 -3 c 6.9 -1.7 9.5 -5.5 9.9 -14.2 c 1.1 -20.7 1.2 -59.6 0.8 -86.9 v -0.8 c 0 -2.9 0 -6.9 -3.6 -9.8 c -6.4 -4 -13.3 -7.1 -20.6 -9.1 c -3.3 -1 -5.1 -2.7 -5 -4.7 c 0.1 -2 2.1 -4.4 6.4 -5.2 c 11.3 -1.1 40.7 -8.2 52.3 -13.5 c 1.2 1.6 1.7 3.5 1.5 5.5 c 0 1.2 -0.2 2.5 -0.3 3.8 c -0.3 3.9 -0.7 8.2 -0.7 12.6 c 0.2 1.6 1.7 2.7 3.2 2.5 c 0.6 -0.1 1.2 -0.4 1.6 -0.8 c 22.1 -17.3 41.8 -23.5 51.9 -23.5 c 16.7 0 29.7 8 39.7 24.4 c 0.5 0.8 1.3 1.3 2.3 1.3 c 0.8 0 1.6 -0.4 2.1 -1.1 c 20.3 -15.4 40.4 -24.6 53.8 -24.6 c 31.8 0 50.8 23.8 50.8 63.6 c 0 11.5 -0.1 26 -0.2 39.5 c -0.1 11.9 -0.2 23 -0.2 30.7 c 0 1.8 2.5 7.1 6.3 8.1 c 4.7 2.3 11.4 3.4 19.9 4.9 h 0.3 c 0.6 2.3 -0.7 11.2 -2 13 c -2.1 0 -5 -0.2 -8.7 -0.4 c -6.6 -0.3 -15.7 -0.8 -26.2 -0.8 c -21.1 0 -32.2 0.4 -42.7 1.1 c -0.8 -2.6 -1.1 -11.1 -0.1 -12.9 c 4.4 -0.7 8.7 -1.6 12.9 -2.8 c 6.7 -2.2 8.7 -5.3 9.1 -14.2 c 0.2 -6.3 1.4 -62.3 -0.8 -75.5 c -2 -13.8 -12.4 -29.9 -35 -29.9 c -8.4 0 -22 3.5 -34.9 13.3 c -0.8 0.9 -1.3 2.1 -1.3 3.3 v 0.3 c 1.5 7.2 1.5 15.5 1.5 28.2 c 0 7.3 0 14.9 -0.1 22.4 c -0.1 15.4 -0.2 30 0.1 41 c 0 7.5 4.5 9.3 8.2 10.7 c 2 0.4 3.5 0.8 5.1 1.2 c 3 0.7 6.2 1.5 10.9 2.3 c 0.7 3.2 0.6 6.5 -0.2 9.7 c -0.2 1.2 -0.7 2.3 -1.4 3.3 c -11.7 -0.4 -23.8 -0.7 -41.2 -0.7 c -5.3 0 -13.9 0.2 -21.5 0.4 c -6.2 0.2 -12 0.3 -15.3 0.3 c -0.9 -2.1 -1.3 -4.4 -1.2 -6.7 c -0.2 -2.2 0.2 -4.3 1.2 -6.3 l 4.7 -0.9 c 4.1 -0.7 7.6 -1.3 10.9 -2.2 c 5.7 -1.8 7.9 -4.9 8.3 -12.3 c 1.1 -17.1 2 -66.3 -0.4 -78.7 c -4.1 -19.8 -15.4 -29.8 -33.5 -29.8 c -10.6 0 -24 5.1 -34.9 13.3 c -2.1 2.1 -3.3 4.9 -3.2 7.9 v 20.3 c 0 24.7 -0.2 55.5 0.4 68.8 c 0.4 4.1 1.8 9 9.5 10.8 c 1.7 0.5 4.6 1 8 1.5 c 1.9 0.3 4.1 0.7 6.3 1.1 c 0.7 4.4 0.3 8.8 -1 13 c -3.4 0 -7.5 -0.2 -12.3 -0.4 c -7.3 -0.3 -16.4 -0.7 -26.6 -0.7 c -12.1 0 -20.6 0.4 -27.4 0.7 c -4.4 0.4 -8.3 0.6 -12.3 0.6 M 708.9 272.4 c -6.6 -0.1 -13 1.7 -18.5 5.2 c -13.5 8.2 -20.4 24.6 -20.4 48.7 c 0 45.1 22.6 76.5 54.9 76.5 c 8.7 0.3 17.1 -2.7 23.7 -8.4 c 9.9 -8.1 15.2 -24.6 15.2 -47.8 c -0.1 -44.4 -22.1 -74.2 -54.9 -74.2 m 6.2 147.1 c -58.4 0 -79.1 -42.8 -79.1 -82.9 c 0 -28 11.4 -49.9 34 -65 c 15.8 -9.8 33.9 -15.1 52.5 -15.5 c 44.5 0 75.6 32 75.6 77.9 c 0 31.2 -12.4 55.8 -35.9 71.2 c -11.3 6.8 -30.9 14.3 -47.1 14.3 M 1303.1 272.4 c -6.6 -0.1 -13 1.7 -18.6 5.2 c -13.5 8.2 -20.4 24.6 -20.4 48.7 c 0 45.1 22.6 76.5 54.9 76.5 c 8.7 0.3 17.2 -2.7 23.7 -8.4 c 9.9 -8.1 15.2 -24.6 15.2 -47.8 c 0 -44.4 -22 -74.2 -54.8 -74.2 m 6.2 147.1 c -58.4 0 -79.1 -42.8 -79.1 -82.9 c 0 -28 11.4 -49.9 34 -65.1 c 15.8 -9.8 33.9 -15.2 52.5 -15.5 c 44.5 0 75.6 32 75.6 77.9 c 0 31.2 -12.4 55.8 -35.9 71.2 c -11.3 6.9 -30.9 14.4 -47.1 14.4 M 1106.6 270.8 c -18 0 -29.6 14.2 -29.6 36.2 s 10 48.1 38.2 48.1 c 4.8 0 13.6 -2.1 17.9 -6.9 c 6.5 -6 10.9 -18.5 10.9 -31.6 c 0 -28.6 -14 -45.8 -37.4 -45.8 m -2.3 151.8 c -5.1 -0.1 -10.1 1.2 -14.5 3.6 c -14.2 9.1 -20.8 18.2 -20.8 28.7 c 0 9.9 3.8 17.8 12.1 24.7 c 10 8.5 23.5 12.6 41.2 12.6 c 34.9 0 50.5 -18.8 50.5 -37.3 c 0 -12.9 -6.5 -21.6 -19.9 -26.5 c -10.3 -3.8 -27.5 -5.8 -48.6 -5.8 m 2.4 89.1 c -20.9 0 -36 -4.4 -48.9 -14.3 c -12.5 -9.7 -18.2 -24 -18.2 -34 c 0.1 -6.4 2.6 -12.5 6.9 -17.3 c 3.6 -4.1 12.1 -11.9 31.6 -25.3 c 0.6 -0.3 1 -0.9 1 -1.5 c 0 -0.8 -0.5 -1.4 -1.2 -1.6 c -16.1 -6.2 -20.9 -16.4 -22.4 -21.8 c 0 -0.2 0 -0.5 -0.2 -0.9 c -0.5 -2.1 -0.9 -4.2 2 -6.3 c 2.3 -1.6 5.9 -3.7 9.7 -6 c 5.4 -3 10.7 -6.4 15.6 -10.2 c 1 -1 0.9 -2.7 -0.1 -3.6 c -0.2 -0.1 -0.3 -0.3 -0.5 -0.4 c -23.8 -8 -35.8 -25.7 -35.8 -52.7 c -0.1 -17.1 8.1 -33.2 22 -43.1 c 9.6 -7.6 33.6 -16.7 49.2 -16.7 h 0.9 c 16 0.4 25.1 3.7 37.6 8.4 c 7.1 2.6 14.7 3.8 22.2 3.5 c 13.3 0 19.1 -4.2 24 -9.1 c 0.8 2.2 1.2 4.5 1.3 6.9 c 0.3 5.6 -1.2 11.1 -4.3 15.8 c -2.7 3.8 -9.1 6.5 -14.9 6.5 c -0.6 0 -1.2 0 -1.8 -0.1 c -3.1 -0.2 -6.1 -0.7 -9.1 -1.5 l -1.5 0.5 c -0.5 0.7 -0.2 1.5 0.2 2.4 c 0.1 0.2 0.2 0.4 0.2 0.6 c 1.1 4.9 1.8 9.8 2.2 14.7 c 0 28.3 -11.1 40.6 -23.2 49.7 c -11.7 8.7 -25.5 14.1 -40 15.5 c -0.3 0 -1.8 0.1 -4.7 0.4 c -1.8 0.2 -4.2 0.4 -4.5 0.4 h -0.3 c -2.6 0.7 -9.5 4 -9.5 10 c 0 5 3.1 11.3 17.9 12.4 l 9.6 0.7 c 19.5 1.4 43.8 3.1 55.3 6.9 c 15.6 5.5 25.9 20.3 25.6 36.9 c 0 25.4 -18 49.2 -48.2 63.8 c -14.2 6.8 -29.8 10.3 -45.6 10.2 M 1017.4 402.5 c -8.5 -1.1 -14.8 -2.3 -22.1 -5.8 c -1.4 -1.5 -2.4 -3.4 -2.7 -5.5 c -0.8 -11.9 -0.8 -46.5 -0.8 -69.1 c 0 -18.5 -3.1 -34.5 -10.9 -46.1 c -9.3 -13.1 -22.5 -20.7 -39.6 -20.7 c -15.1 0 -35.3 10.4 -52 24.6 c -0.4 0.4 -3 2.8 -2.9 -1 c 0.1 -3.8 0.6 -11.5 1 -16.4 c 0.3 -2.6 -0.6 -5.3 -2.5 -7.1 c -10.9 5.5 -41.5 12.7 -52.8 13.8 c -8.3 1.6 -10.3 9.5 -1.5 12.3 h 0.1 c 7.1 1.9 13.8 4.9 20 8.8 c 3.5 2.7 3.1 6.5 3.1 9.6 c 0.4 25.7 0.4 65.3 -0.8 86.8 c -0.4 8.5 -2.7 11.5 -8.9 13.1 l 0.6 -0.2 c -4.7 1.2 -9.5 2.1 -14.4 2.7 c -1.9 1.9 -1.9 13.1 0 15.4 c 3.9 0 23.6 -1.1 40 -1.1 c 22.5 0 34.2 1.1 40 1.1 c 2.3 -2.7 3.1 -13.1 1.6 -15.4 c -5.4 -0.2 -10.7 -1 -15.9 -2.3 c -6.2 -1.5 -7.8 -4.6 -8.1 -11.5 c -0.8 -18.1 -0.8 -56.5 -0.8 -82.6 c 0 -7.3 1.9 -10.7 4.3 -12.7 c 7.8 -6.9 20.6 -11.5 31.9 -11.5 c 10.9 0 18.2 3.5 23.6 8.1 c 6.4 5.5 10.3 13.3 11.1 21.7 c 1.5 14.5 1.1 43.8 1.1 69.1 c 0 13.8 -1.1 17.3 -6.2 18.8 c -2.3 1.1 -8.5 2.3 -15.9 3.1 c -2.3 2.3 -1.6 13.1 0 15.4 c 10.1 0 21.8 -1.1 38.8 -1.1 c 21.4 0 35 1.1 40.4 1.1 c 2 -2.7 2.8 -12.8 1.2 -15.4" stroke-linecap="round"/>
</g>
</g>
</g>
<g transform="matrix(1.3657 0 0 1 362.7406 295.3488)" id="584994">
<g style="" vector-effect="non-scaling-stroke">
		<g transform="matrix(1 0 0 1 8.5 -0.3)">
<path style="stroke: none; stroke-width: 1; stroke-dasharray: none; stroke-linecap: butt; stroke-dashoffset: 0; stroke-linejoin: miter; stroke-miterlimit: 4; is-custom-font: none; font-file-url: none; fill: rgb(0,0,0); fill-rule: nonzero; opacity: 1;" transform=" translate(-205.5, -39.7)" d="M 262 0 h 68.5 v 12.7 h -27.2 v 66.6 h -13.6 V 12.7 H 262 V 0 Z M 149 0 v 12.7 H 94 v 20.4 h 44.3 v 12.6 H 94 v 21 h 55 v 12.6 H 80.5 V 0 h 68.7 z m 34.3 0 h -17.8 l 63.8 79.4 h 17.9 l -32 -39.7 l 32 -39.6 h -17.9 l -23 28.6 l -23 -28.6 z m 18.3 56.7 l -9 -11 l -27.1 33.7 h 17.8 l 18.3 -22.7 z" stroke-linecap="round"/>
</g>
		<g transform="matrix(1 0 0 1 0.0013 -0.35)">
<path style="stroke: none; stroke-width: 1; stroke-dasharray: none; stroke-linecap: butt; stroke-dashoffset: 0; stroke-linejoin: miter; stroke-miterlimit: 4; is-custom-font: none; font-file-url: none; fill: rgb(0,0,0); fill-rule: nonzero; opacity: 1;" transform=" translate(-197.0013, -39.65)" d="M 81 79.3 L 17 0 H 0 v 79.3 h 13.6 V 17 l 50.2 62.3 H 81 Z m 252.6 -0.4 c -1 0 -1.8 -0.4 -2.5 -1 s -1.1 -1.6 -1.1 -2.6 s 0.3 -1.8 1 -2.5 s 1.6 -1 2.6 -1 s 1.8 0.3 2.5 1 a 3.4 3.4 0 0 1 0.6 4.3 a 3.7 3.7 0 0 1 -3 1.8 z m 23.2 -33.5 h 6 v 23.3 c 0 2.1 -0.4 4 -1.3 5.5 a 9.1 9.1 0 0 1 -3.8 3.5 c -1.6 0.8 -3.5 1.3 -5.7 1.3 c -2 0 -3.7 -0.4 -5.3 -1 s -2.8 -1.8 -3.7 -3.2 c -0.9 -1.3 -1.4 -3 -1.4 -5 h 6 c 0.1 0.8 0.3 1.6 0.7 2.2 s 1 1.2 1.6 1.5 c 0.7 0.4 1.5 0.5 2.4 0.5 c 1 0 1.8 -0.2 2.4 -0.6 a 4 4 0 0 0 1.6 -1.8 c 0.3 -0.8 0.5 -1.8 0.5 -3 V 45.5 z m 30.9 9.1 a 4.4 4.4 0 0 0 -2 -3.3 a 7.5 7.5 0 0 0 -4.3 -1.1 c -1.3 0 -2.4 0.2 -3.3 0.5 c -0.9 0.4 -1.6 1 -2 1.6 a 3.5 3.5 0 0 0 -0.3 4 c 0.3 0.5 0.7 0.9 1.3 1.2 l 1.8 1 l 2 0.5 l 3.2 0.8 c 1.3 0.3 2.5 0.7 3.7 1.2 a 13 13 0 0 1 3.2 1.8 a 8.1 8.1 0 0 1 3 6.5 c 0 2 -0.5 3.7 -1.5 5.1 a 10 10 0 0 1 -4.4 3.5 c -1.8 0.8 -4.1 1.2 -6.8 1.2 c -2.6 0 -4.9 -0.4 -6.8 -1.2 c -2 -0.8 -3.4 -2 -4.5 -3.5 a 10 10 0 0 1 -1.7 -5.6 h 6 a 5 5 0 0 0 3.5 4.6 c 1 0.4 2.2 0.6 3.4 0.6 c 1.3 0 2.5 -0.2 3.5 -0.6 c 1 -0.4 1.8 -1 2.4 -1.7 a 4 4 0 0 0 0.8 -2.4 c 0 -0.9 -0.2 -1.6 -0.7 -2.2 a 11 11 0 0 0 -2.1 -1.4 l -3.2 -1 l -3.8 -1 c -2.8 -0.7 -5 -1.7 -6.6 -3.2 a 7.2 7.2 0 0 1 -2.4 -5.7 a 8 8 0 0 1 1.7 -5 a 10 10 0 0 1 4.3 -3.5 c 2 -0.8 4 -1.2 6.4 -1.2 c 2.3 0 4.4 0.4 6.2 1.2 c 1.8 0.8 3.2 2 4.3 3.4 c 1 1.4 1.5 3 1.5 5 h -5.8 z" stroke-linecap="round"/>
</g>
</g>
</g>
</svg>