<?xml version="1.0" standalone="no"?>
<!DOCTYPE svg PUBLIC "-//W3C//DTD SVG 20010904//EN"
 "http://www.w3.org/TR/2001/REC-SVG-20010904/DTD/svg10.dtd">
<svg version="1.0" xmlns="http://www.w3.org/2000/svg"
 width="268.000000pt" height="200.000000pt" viewBox="0 0 268.000000 200.000000"
 preserveAspectRatio="xMidYMid meet">

<g transform="translate(0.000000,200.000000) scale(0.100000,-0.100000)"
fill="#000000" stroke="none">
<path d="M110 1248 c-52 -5 -97 -12 -99 -14 -4 -4 81 -520 96 -581 5 -22 9
-23 133 -23 l128 0 10 48 c6 26 16 79 23 119 6 40 16 70 21 67 11 -7 10 -88
-3 -160 -17 -98 -9 -91 -115 -96 -99 -5 -110 -9 -102 -30 4 -10 34 -12 126
-10 114 3 120 4 126 25 5 21 10 22 136 23 71 0 132 2 134 5 5 4 106 585 106
606 0 7 -33 14 -87 18 -49 3 -100 8 -115 11 -25 5 -27 3 -30 -33 -2 -31 -7
-39 -25 -41 -27 -4 -27 0 -7 -97 9 -43 13 -88 9 -103 -6 -22 -11 -8 -26 68
-10 52 -23 121 -30 153 l-12 57 -87 0 c-94 0 -100 -3 -100 -56 0 -19 -5 -24
-26 -24 -23 0 -25 -3 -20 -27 12 -65 16 -140 8 -168 -7 -25 -11 -13 -21 75
-21 173 -25 195 -41 196 -8 1 -58 -3 -110 -8z m135 -175 c27 -251 27 -251 59
-37 16 104 31 194 33 201 6 15 163 19 163 4 0 -19 70 -385 75 -389 3 -3 5 6 5
19 0 34 30 351 34 364 2 7 37 7 105 1 67 -6 101 -13 98 -20 -2 -6 -26 -140
-52 -298 l-49 -287 -115 -3 c-64 -2 -119 1 -122 5 -3 5 -16 74 -29 155 -13 81
-26 150 -30 155 -3 4 -18 -59 -33 -139 -15 -81 -28 -148 -30 -150 -2 -2 -55
-7 -119 -10 l-116 -7 -6 29 c-16 76 -97 556 -94 559 6 6 193 21 199 15 3 -3
14 -78 24 -167z"/>
<path d="M1068 1253 c-80 -3 -99 -7 -107 -21 -14 -27 -74 -242 -69 -247 2 -3
19 47 38 110 18 64 38 122 44 130 8 10 39 14 118 16 59 2 110 1 112 -2 3 -2
37 -114 76 -248 48 -164 70 -257 69 -286 l-3 -43 -65 -7 c-36 -3 -76 -9 -88
-12 -19 -4 -24 2 -36 44 l-14 48 -56 3 -55 3 -7 -38 c-10 -64 -10 -63 -120
-52 -55 6 -100 11 -102 12 -1 2 15 60 37 130 21 70 36 137 33 149 -4 19 -3 20
7 8 9 -12 10 -9 6 15 -4 17 0 66 8 110 8 44 13 81 13 82 -1 0 -13 3 -27 5
l-25 3 -37 -220 c-21 -121 -42 -250 -49 -287 l-11 -68 -99 0 c-92 0 -99 -1
-99 -20 0 -19 7 -20 103 -20 138 0 145 3 152 54 l7 41 88 -9 c49 -5 95 -6 103
-3 8 3 18 24 22 46 l7 41 49 0 c27 0 49 -4 49 -10 0 -5 -15 -10 -34 -10 -33 0
-35 -2 -42 -45 -3 -25 -9 -47 -13 -49 -3 -2 -40 0 -81 4 -44 5 -76 5 -78 -1
-2 -4 -4 -12 -5 -16 -1 -5 46 -13 106 -18 l107 -10 10 35 c5 19 10 41 10 48 0
18 27 15 38 -5 9 -15 19 -15 111 -4 64 8 107 9 118 3 15 -9 15 -10 -3 -15 -10
-3 -47 -9 -81 -12 -65 -7 -69 -10 -53 -35 7 -12 23 -12 107 -2 94 12 102 11
147 -9 95 -42 222 -25 289 39 58 54 58 59 55 350 l-3 267 103 5 c57 3 105 3
106 0 2 -3 -3 -108 -10 -235 -7 -126 -13 -255 -13 -286 l-1 -56 -87 -7 c-65
-5 -89 -3 -95 6 -5 10 -8 8 -8 -4 0 -16 11 -18 88 -18 48 0 93 4 100 8 9 6 17
76 26 243 l14 234 -1 -252 0 -253 -64 0 c-56 0 -63 -2 -63 -20 0 -19 7 -20 91
-20 l92 0 -6 29 -6 28 92 6 c148 8 265 62 321 147 57 86 71 231 31 310 -60
119 -178 169 -354 149 -95 -11 -118 -20 -124 -51 -2 -13 -5 -5 -6 18 l-1 41
-117 -5 c-65 -2 -120 -6 -122 -8 -2 -2 -3 -98 -2 -215 2 -255 -5 -286 -83
-365 -41 -40 -63 -54 -104 -64 -58 -14 -139 -7 -187 15 l-30 14 40 -7 c154
-26 262 32 319 172 18 45 21 71 20 226 0 96 -4 193 -8 214 l-7 39 -100 -6
c-56 -3 -103 -7 -105 -10 -3 -3 0 -61 7 -131 22 -233 4 -298 -84 -304 -28 -2
-59 3 -79 14 -31 15 -32 15 -17 -1 21 -22 88 -36 124 -27 69 19 88 112 66 326
-6 60 -9 111 -8 113 2 1 44 6 94 9 l91 7 7 -66 c4 -36 5 -134 3 -219 -4 -135
-7 -159 -27 -201 -61 -125 -177 -174 -317 -132 -90 26 -91 28 -71 136 l16 94
-46 158 c-39 132 -49 157 -65 157 -16 0 -18 -5 -12 -22 42 -133 94 -328 93
-352 0 -17 -32 78 -71 212 -70 238 -72 242 -97 240 -14 -1 -70 -4 -123 -5z
m1331 -38 c62 -22 107 -61 136 -118 21 -42 25 -65 25 -131 0 -94 -25 -159 -81
-215 -67 -67 -201 -111 -341 -111 l-58 0 0 143 c0 78 3 206 7 284 l6 142 41
10 c67 15 219 13 265 -4z"/>
<path d="M2286 1062 c-2 -4 -7 -65 -11 -135 -8 -125 -7 -127 13 -127 30 0 89
55 102 96 14 41 5 106 -18 134 -18 21 -79 44 -86 32z m55 -22 c5 0 9 -5 9 -11
0 -5 -4 -8 -9 -5 -11 7 -21 -52 -21 -126 0 -38 -5 -62 -16 -72 -8 -9 -17 -16
-20 -16 -5 0 4 157 12 208 4 25 9 32 20 28 9 -3 20 -6 25 -6z m42 -122 l-11
-33 -1 45 c-1 33 2 41 11 32 8 -8 8 -20 1 -44z"/>
<path d="M2582 1070 c33 -65 32 -193 -1 -268 -30 -66 -104 -134 -176 -161 -44
-17 -182 -41 -232 -41 -7 0 -13 -7 -13 -15 0 -12 16 -15 88 -15 140 0 262 41
329 112 100 104 108 301 17 396 l-35 37 23 -45z"/>
<path d="M1071 973 c-7 -38 -15 -78 -18 -90 -5 -21 -2 -23 37 -23 35 0 41 3
36 18 -3 9 -10 46 -17 82 -6 36 -15 68 -19 73 -3 4 -12 -23 -19 -60z m32 -45
c5 -41 -1 -58 -20 -58 -12 0 -14 8 -9 38 3 20 6 43 6 50 0 26 18 2 23 -30z"/>
</g>
</svg>
